<svg aria-hidden="true" style="width:0;height:0;position:absolute;overflow:hidden" xmlns="http://www.w3.org/2000/svg"><defs><symbol id="FORMA-ICON" viewBox="0 0 32 32"><path d="M8 1.333A6.667 6.667 0 0 0 1.333 8v16A6.667 6.667 0 0 0 8 30.667h16A6.667 6.667 0 0 0 30.667 24V8A6.667 6.667 0 0 0 24 1.333H8zM0 8a8 8 0 0 1 8-8h16a8 8 0 0 1 8 8v16a8 8 0 0 1-8 8H8a8 8 0 0 1-8-8V8zm22.667 1.981V6.667H9.334v18.667h3.593v-7.217h8.908v-3.185h-8.908v-4.95h9.741z"/></symbol><symbol id="user-avatarSubtract" viewBox="0 0 32 32"><path d="M11.056 13.327c1.371 1.371 3.018 2.056 4.944 2.056s3.573-.685 4.944-2.056S23 10.308 23 8.383s-.685-3.573-2.056-4.944S17.925 1.382 16 1.382s-3.573.685-4.944 2.057C9.685 4.81 9 6.457 9 8.383s.685 3.573 2.056 4.944zM1 26.167v4.446h3v-4.614h.007c.028-.341.143-.661.345-.958.235-.345.553-.626.955-.844 1.723-.849 3.48-1.492 5.271-1.929s3.598-.656 5.421-.656 3.63.219 5.421.656a25.67 25.67 0 0 1 5.271 1.929c.402.218.721.499.956.844.202.297.317.616.345.958h.007v4.614h3v-4.446c0-.979-.266-1.886-.798-2.721s-1.243-1.476-2.133-1.925c-1.977-.969-3.971-1.696-5.982-2.181a25.88 25.88 0 0 0-12.174 0 29.015 29.015 0 0 0-5.982 2.181c-.89.449-1.601 1.09-2.133 1.925s-.798 1.742-.798 2.721zm17.825-14.959c-.783.783-1.725 1.175-2.825 1.175s-2.042-.392-2.825-1.175C12.392 10.425 12 9.483 12 8.383s.392-2.042 1.175-2.825C13.958 4.775 14.9 4.383 16 4.383s2.042.392 2.825 1.175C19.608 6.341 20 7.283 20 8.383s-.392 2.042-1.175 2.825z"/></symbol><symbol id="LOGO-FORMA" viewBox="0 0 213 32"><path d="M129.144 0v6.081l-2.467 7.113h-3.924l3.879-7.113h-3.61V0h6.122zm15.833 19.613c3.064.314 4.596 1.481 4.596 3.501 0 1.212-.501 2.192-1.502 2.939-1.001.733-2.317 1.1-3.946 1.1-2.018 0-3.58-.389-4.686-1.167s-1.801-1.967-2.085-3.568h-5.628c.314 2.842 1.555 5.116 3.722 6.822 2.183 1.69 5.06 2.536 8.633 2.536 2.212 0 4.141-.359 5.785-1.077 1.659-.718 2.945-1.728 3.857-3.029.912-1.316 1.368-2.85 1.368-4.6 0-2.618-.777-4.652-2.332-6.104s-3.931-2.356-7.13-2.715l-3.991-.471c-1.375-.165-2.414-.509-3.117-1.032-.703-.539-1.054-1.302-1.054-2.289 0-1.227.501-2.207 1.502-2.94s2.339-1.1 4.014-1.1c1.794 0 3.176.381 4.148 1.144.972.748 1.585 1.915 1.839 3.501h5.583c-.284-2.872-1.45-5.124-3.498-6.754-2.033-1.646-4.701-2.468-8.005-2.468-3.423 0-6.129.793-8.117 2.379-1.988 1.571-2.982 3.718-2.982 6.44 0 2.468.748 4.428 2.242 5.879 1.51 1.451 3.677 2.326 6.502 2.625l4.283.449zm49.856-10.636V3.143h5.471v5.834h3.767v4.488h-3.767v10.524c0 1.047.187 1.765.56 2.154.389.374.912.561 1.57.561h1.637v4.712h-2.377c-1.315 0-2.496-.239-3.543-.718a5.525 5.525 0 0 1-2.444-2.199c-.583-.987-.874-2.237-.874-3.747V13.465h-3.722V8.977h3.722zm18.037 16.332v6.104h-6.121v-6.104h6.121zm-29.625-6.862v12.97h5.494V17.28c0-2.902-.777-5.124-2.332-6.665-1.54-1.541-3.513-2.311-5.92-2.311-1.36 0-2.691.389-3.991 1.167-1.178.691-2.172 1.652-2.982 2.884V8.978h-5.516v22.44h5.516V18.134c0-.927.217-1.75.65-2.468a4.559 4.559 0 0 1 1.749-1.705c.733-.419 1.562-.628 2.489-.628 1.48 0 2.653.411 3.52 1.234.882.808 1.323 2.102 1.323 3.882zm-19.138-3.159v16.129h-5.516V15.288h5.516zM158.349 0v6.081h3.61l-3.879 7.113h3.924l2.466-7.113V0h-6.121zm-36.618 31.417h-5.494v-3.503a8.206 8.206 0 0 1-2.825 2.875c-1.3.778-2.795 1.167-4.484 1.167-1.435 0-2.713-.299-3.834-.898s-2.003-1.421-2.646-2.468c-.643-1.047-.964-2.244-.964-3.59 0-2.02.576-3.59 1.727-4.712 1.166-1.122 2.84-1.75 5.023-1.885l6.009-.404c.792-.06 1.323-.202 1.592-.426s.403-.613.403-1.167v-.09c0-1.137-.419-2.057-1.256-2.76-.822-.718-1.831-1.077-3.027-1.077-2.795 0-4.343 1.152-4.641 3.456h-5.651c.105-1.526.59-2.85 1.457-3.972.882-1.137 2.063-2.02 3.543-2.648s3.192-.942 5.135-.942c1.973 0 3.7.359 5.18 1.077 1.495.718 2.661 1.728 3.498 3.029s1.256 2.827 1.256 4.578v14.361zm-5.494-8.998v-.781l-5.987.355c-2.153.135-3.229 1.04-3.229 2.715 0 .898.359 1.616 1.076 2.154s1.659.808 2.825.808c1.001 0 1.906-.224 2.713-.673.807-.464 1.443-1.092 1.906-1.885s.695-1.69.695-2.693zm-23.696-3.972c0-1.78-.396-3.074-1.188-3.882-.792-.823-1.861-1.234-3.207-1.234-.837 0-1.592.209-2.265.628a4.43 4.43 0 0 0-1.614 1.705c-.389.718-.583 1.541-.583 2.468v13.284h-5.493v-12.97c0-1.78-.396-3.074-1.188-3.882-.777-.823-1.839-1.234-3.184-1.234-.837 0-1.592.209-2.265.628a4.278 4.278 0 0 0-1.592 1.705c-.389.718-.583 1.541-.583 2.468v13.284h-5.516V8.975h5.516V12.2c.761-1.158 1.681-2.069 2.758-2.731 1.241-.778 2.504-1.167 3.789-1.167 2.242 0 4.096.77 5.561 2.311.689.724 1.216 1.599 1.581 2.625.081-.168.167-.332.258-.493.822-1.421 1.854-2.513 3.094-3.276 1.256-.778 2.534-1.167 3.834-1.167 2.242 0 4.096.77 5.561 2.311s2.197 3.762 2.197 6.665v14.137h-5.471v-12.97zm-33.017-4.265h1.3V8.527h-1.121c-1.241 0-2.459.419-3.655 1.257-.995.694-1.847 1.642-2.556 2.846V8.976h-5.516v22.44h5.516V19.074c0-.957.247-1.803.74-2.536.508-.733 1.211-1.309 2.108-1.728.912-.419 1.973-.628 3.184-.628zm-37.232 5.925c0-2.379.463-4.451 1.39-6.216.942-1.765 2.242-3.134 3.901-4.106 1.674-.987 3.625-1.481 5.852-1.481s4.171.494 5.83 1.481c1.659.972 2.952 2.341 3.879 4.106.942 1.765 1.413 3.837 1.413 6.216s-.471 4.465-1.413 6.261c-.927 1.78-2.22 3.164-3.879 4.151S35.662 32 33.435 32s-4.178-.494-5.852-1.481c-1.674-.987-2.975-2.371-3.901-4.151-.927-1.795-1.39-3.882-1.39-6.261zm16.637 0c0-2.229-.486-3.957-1.458-5.184-.957-1.227-2.302-1.84-4.036-1.84s-3.094.613-4.081 1.84c-.987 1.227-1.48 2.955-1.48 5.184 0 2.259.493 4.009 1.48 5.251s2.347 1.863 4.081 1.863 3.079-.621 4.036-1.863c.972-1.241 1.458-2.992 1.458-5.251zM20.472 7.405V2.221H0v29.194h5.516V20.128h13.678v-4.982H5.516V7.404h14.956z"/></symbol><symbol id="hart" viewBox="0 0 36 32"><path d="m17.778 30.8-1.962-1.764c-2.947-2.673-5.384-4.971-7.311-6.892s-3.454-3.632-4.581-5.13c-1.127-1.498-1.915-2.865-2.362-4.101S.89 10.424.89 9.153c0-2.523.851-4.635 2.552-6.337S7.256.264 9.779.264c1.552 0 3.019.363 4.4 1.089s2.581 1.767 3.6 3.123c1.019-1.356 2.219-2.397 3.6-3.123s2.848-1.089 4.4-1.089c2.523 0 4.635.851 6.337 2.552s2.552 3.814 2.552 6.337c0 1.272-.224 2.525-.672 3.76s-1.235 2.603-2.362 4.101c-1.127 1.499-2.651 3.209-4.573 5.13s-4.361 4.218-7.319 6.892L17.78 30.8zm0-3.603c2.844-2.559 5.185-4.753 7.022-6.581s3.289-3.416 4.356-4.764 1.807-2.545 2.222-3.592c.415-1.046.622-2.082.622-3.108 0-1.778-.593-3.259-1.778-4.444S27.555 2.93 25.778 2.93c-1.404 0-2.701.398-3.892 1.195S19.752 6.03 19.057 7.45H16.5c-.707-1.431-1.653-2.543-2.838-3.333s-2.48-1.186-3.884-1.186c-1.767 0-3.245.593-4.436 1.778S3.556 7.376 3.556 9.153c0 1.026.207 2.062.622 3.108s1.156 2.243 2.222 3.592 2.519 2.933 4.356 4.756c1.837 1.822 4.178 4.019 7.022 6.59z"/></symbol><symbol id="icon-hamburger" viewBox="0 0 36 32"><path d="M1.199 4.002a2.4 2.4 0 0 1 2.4-2.4h28.8a2.4 2.4 0 1 1 0 4.8h-28.8a2.4 2.4 0 0 1-2.4-2.4zM1.199 16.002a2.4 2.4 0 0 1 2.4-2.4h28.8a2.4 2.4 0 1 1 0 4.8h-28.8a2.4 2.4 0 0 1-2.4-2.4zM1.199 28.002a2.4 2.4 0 0 1 2.4-2.4h28.8a2.4 2.4 0 1 1 0 4.8h-28.8a2.4 2.4 0 0 1-2.4-2.4z"/></symbol><symbol id="icon-modal_close" viewBox="0 0 32 32"><path d="M32 3.223 28.777 0 16 12.777 3.223 0 0 3.223 12.777 16 0 28.777 3.223 32 16 19.223 28.777 32 32 28.777 19.223 16 32 3.223z"/></symbol></defs></svg>