<svg aria-hidden="true" style="position: absolute; width: 0; height: 0; overflow: hidden;" version="1.1" xmlns="http://www.w3.org/2000/svg" xmlns:xlink="http://www.w3.org/1999/xlink">
<defs>

<symbol id="FORMA-ICON" viewBox="0 0 32 32">
<path d="M8 1.333c-3.682 0-6.667 2.985-6.667 6.667v16c0 3.682 2.985 6.667 6.667 6.667h16c3.682 0 6.667-2.985 6.667-6.667v-16c0-3.682-2.985-6.667-6.667-6.667h-16zM0 8c0-4.418 3.582-8 8-8h16c4.418 0 8 3.582 8 8v16c0 4.418-3.582 8-8 8h-16c-4.418 0-8-3.582-8-8v-16zM22.667 9.981v-3.314h-13.333v18.667h3.593v-7.217h8.908v-3.185h-8.908v-4.95h9.741z"></path>
</symbol>
<symbol id="user-avatarSubtract" viewBox="0 0 32 32">
<path d="M11.056 13.327c1.371 1.371 3.018 2.056 4.944 2.056s3.573-0.685 4.944-2.056c1.371-1.371 2.056-3.019 2.056-4.944s-0.685-3.573-2.056-4.944c-1.371-1.371-3.019-2.057-4.944-2.057s-3.573 0.685-4.944 2.057c-1.371 1.371-2.056 3.018-2.056 4.944s0.685 3.573 2.056 4.944zM1 26.167v4.446h3v-4.614h0.007c0.028-0.341 0.143-0.661 0.345-0.958 0.235-0.345 0.553-0.626 0.955-0.844 1.723-0.849 3.48-1.492 5.271-1.929s3.598-0.656 5.421-0.656 3.63 0.219 5.421 0.656c1.791 0.437 3.548 1.080 5.271 1.929 0.402 0.218 0.721 0.499 0.956 0.844 0.202 0.297 0.317 0.616 0.345 0.958h0.007v4.614h3v-4.446c0-0.979-0.266-1.886-0.798-2.721s-1.243-1.476-2.133-1.925c-1.977-0.969-3.971-1.696-5.982-2.181s-4.041-0.727-6.087-0.727-4.075 0.242-6.087 0.727c-2.012 0.485-4.006 1.212-5.982 2.181-0.89 0.449-1.601 1.090-2.133 1.925s-0.798 1.742-0.798 2.721zM18.825 11.208c-0.783 0.783-1.725 1.175-2.825 1.175s-2.042-0.392-2.825-1.175c-0.783-0.783-1.175-1.725-1.175-2.825s0.392-2.042 1.175-2.825c0.783-0.783 1.725-1.175 2.825-1.175s2.042 0.392 2.825 1.175c0.783 0.783 1.175 1.725 1.175 2.825s-0.392 2.042-1.175 2.825z"></path>
</symbol>

<symbol id="LOGO-FORMA" viewBox="0 0 213 32">
<path d="M129.144 0v6.081l-2.467 7.113h-3.924l3.879-7.113h-3.61v-6.081h6.122zM144.977 19.613c3.064 0.314 4.596 1.481 4.596 3.501 0 1.212-0.501 2.192-1.502 2.939-1.001 0.733-2.317 1.1-3.946 1.1-2.018 0-3.58-0.389-4.686-1.167s-1.801-1.967-2.085-3.568h-5.628c0.314 2.842 1.555 5.116 3.722 6.822 2.183 1.69 5.060 2.536 8.633 2.536 2.212 0 4.141-0.359 5.785-1.077 1.659-0.718 2.945-1.728 3.857-3.029 0.912-1.316 1.368-2.85 1.368-4.6 0-2.618-0.777-4.652-2.332-6.104s-3.931-2.356-7.13-2.715l-3.991-0.471c-1.375-0.165-2.414-0.509-3.117-1.032-0.703-0.539-1.054-1.302-1.054-2.289 0-1.227 0.501-2.207 1.502-2.94s2.339-1.1 4.014-1.1c1.794 0 3.176 0.381 4.148 1.144 0.972 0.748 1.585 1.915 1.839 3.501h5.583c-0.284-2.872-1.45-5.124-3.498-6.754-2.033-1.646-4.701-2.468-8.005-2.468-3.423 0-6.129 0.793-8.117 2.379-1.988 1.571-2.982 3.718-2.982 6.44 0 2.468 0.748 4.428 2.242 5.879 1.51 1.451 3.677 2.326 6.502 2.625l4.283 0.449zM194.833 8.977v-5.834h5.471v5.834h3.767v4.488h-3.767v10.524c0 1.047 0.187 1.765 0.56 2.154 0.389 0.374 0.912 0.561 1.57 0.561h1.637v4.712h-2.377c-1.315 0-2.496-0.239-3.543-0.718-1.031-0.479-1.846-1.212-2.444-2.199-0.583-0.987-0.874-2.237-0.874-3.747v-11.287h-3.722v-4.488h3.722zM212.87 25.309v6.104h-6.121v-6.104h6.121zM183.245 18.447v12.97h5.494v-14.137c0-2.902-0.777-5.124-2.332-6.665-1.54-1.541-3.513-2.311-5.92-2.311-1.36 0-2.691 0.389-3.991 1.167-1.178 0.691-2.172 1.652-2.982 2.884v-3.377h-5.516v22.44h5.516v-13.284c0-0.927 0.217-1.75 0.65-2.468 0.434-0.733 1.017-1.302 1.749-1.705 0.733-0.419 1.562-0.628 2.489-0.628 1.48 0 2.653 0.411 3.52 1.234 0.882 0.808 1.323 2.102 1.323 3.882zM164.107 15.288v16.129h-5.516v-16.129h5.516zM158.349 0v6.081h3.61l-3.879 7.113h3.924l2.466-7.113v-6.081h-6.121zM121.731 31.417h-5.494v-3.503c-0.711 1.201-1.652 2.16-2.825 2.875-1.3 0.778-2.795 1.167-4.484 1.167-1.435 0-2.713-0.299-3.834-0.898s-2.003-1.421-2.646-2.468c-0.643-1.047-0.964-2.244-0.964-3.59 0-2.020 0.576-3.59 1.727-4.712 1.166-1.122 2.84-1.75 5.023-1.885l6.009-0.404c0.792-0.060 1.323-0.202 1.592-0.426s0.403-0.613 0.403-1.167v-0.090c0-1.137-0.419-2.057-1.256-2.76-0.822-0.718-1.831-1.077-3.027-1.077-2.795 0-4.343 1.152-4.641 3.456h-5.651c0.105-1.526 0.59-2.85 1.457-3.972 0.882-1.137 2.063-2.020 3.543-2.648s3.192-0.942 5.135-0.942c1.973 0 3.7 0.359 5.18 1.077 1.495 0.718 2.661 1.728 3.498 3.029s1.256 2.827 1.256 4.578v14.361zM116.237 22.419v-0.781l-5.987 0.355c-2.153 0.135-3.229 1.040-3.229 2.715 0 0.898 0.359 1.616 1.076 2.154s1.659 0.808 2.825 0.808c1.001 0 1.906-0.224 2.713-0.673 0.807-0.464 1.443-1.092 1.906-1.885s0.695-1.69 0.695-2.693zM92.541 18.447c0-1.78-0.396-3.074-1.188-3.882-0.792-0.823-1.861-1.234-3.207-1.234-0.837 0-1.592 0.209-2.265 0.628-0.673 0.404-1.211 0.972-1.614 1.705-0.389 0.718-0.583 1.541-0.583 2.468v13.284h-5.493v-12.97c0-1.78-0.396-3.074-1.188-3.882-0.777-0.823-1.839-1.234-3.184-1.234-0.837 0-1.592 0.209-2.265 0.628-0.673 0.404-1.203 0.972-1.592 1.705-0.389 0.718-0.583 1.541-0.583 2.468v13.284h-5.516v-22.44h5.516v3.225c0.761-1.158 1.681-2.069 2.758-2.731 1.241-0.778 2.504-1.167 3.789-1.167 2.242 0 4.096 0.77 5.561 2.311 0.689 0.724 1.216 1.599 1.581 2.625 0.081-0.168 0.167-0.332 0.258-0.493 0.822-1.421 1.854-2.513 3.094-3.276 1.256-0.778 2.534-1.167 3.834-1.167 2.242 0 4.096 0.77 5.561 2.311s2.197 3.762 2.197 6.665v14.137h-5.471v-12.97zM59.524 14.182h1.3v-5.655h-1.121c-1.241 0-2.459 0.419-3.655 1.257-0.995 0.694-1.847 1.642-2.556 2.846v-3.654h-5.516v22.44h5.516v-12.342c0-0.957 0.247-1.803 0.74-2.536 0.508-0.733 1.211-1.309 2.108-1.728 0.912-0.419 1.973-0.628 3.184-0.628zM22.292 20.107c0-2.379 0.463-4.451 1.39-6.216 0.942-1.765 2.242-3.134 3.901-4.106 1.674-0.987 3.625-1.481 5.852-1.481s4.171 0.494 5.83 1.481c1.659 0.972 2.952 2.341 3.879 4.106 0.942 1.765 1.413 3.837 1.413 6.216s-0.471 4.465-1.413 6.261c-0.927 1.78-2.22 3.164-3.879 4.151s-3.603 1.481-5.83 1.481-4.178-0.494-5.852-1.481c-1.674-0.987-2.975-2.371-3.901-4.151-0.927-1.795-1.39-3.882-1.39-6.261zM38.929 20.107c0-2.229-0.486-3.957-1.458-5.184-0.957-1.227-2.302-1.84-4.036-1.84s-3.094 0.613-4.081 1.84c-0.987 1.227-1.48 2.955-1.48 5.184 0 2.259 0.493 4.009 1.48 5.251s2.347 1.863 4.081 1.863 3.079-0.621 4.036-1.863c0.972-1.241 1.458-2.992 1.458-5.251zM20.472 7.405v-5.184h-20.472v29.194h5.516v-11.287h13.678v-4.982h-13.678v-7.742h14.956z"></path>
</symbol>

<symbol id="hart" viewBox="0 0 36 32">
<path d="M17.778 30.8l-1.962-1.764c-2.947-2.673-5.384-4.971-7.311-6.892s-3.454-3.632-4.581-5.13c-1.127-1.498-1.915-2.865-2.362-4.101s-0.672-2.489-0.672-3.76c0-2.523 0.851-4.635 2.552-6.337s3.814-2.552 6.337-2.552c1.552 0 3.019 0.363 4.4 1.089s2.581 1.767 3.6 3.123c1.019-1.356 2.219-2.397 3.6-3.123s2.848-1.089 4.4-1.089c2.523 0 4.635 0.851 6.337 2.552s2.552 3.814 2.552 6.337c0 1.272-0.224 2.525-0.672 3.76s-1.235 2.603-2.362 4.101c-1.127 1.499-2.651 3.209-4.573 5.13s-4.361 4.218-7.319 6.892l-1.962 1.764zM17.778 27.197c2.844-2.559 5.185-4.753 7.022-6.581s3.289-3.416 4.356-4.764 1.807-2.545 2.222-3.592c0.415-1.046 0.622-2.082 0.622-3.108 0-1.778-0.593-3.259-1.778-4.444s-2.667-1.778-4.444-1.778c-1.404 0-2.701 0.398-3.892 1.195s-2.134 1.905-2.829 3.325h-2.557c-0.707-1.431-1.653-2.543-2.838-3.333s-2.48-1.186-3.884-1.186c-1.767 0-3.245 0.593-4.436 1.778s-1.786 2.667-1.786 4.444c0 1.026 0.207 2.062 0.622 3.108s1.156 2.243 2.222 3.592 2.519 2.933 4.356 4.756c1.837 1.822 4.178 4.019 7.022 6.59z"></path>
</symbol>

<symbol id="icon-hamburger" viewBox="0 0 36 32">
<path d="M1.199 4.002c0-0.637 0.253-1.247 0.703-1.697s1.061-0.703 1.697-0.703h28.8c0.637 0 1.247 0.253 1.697 0.703s0.703 1.061 0.703 1.697-0.253 1.247-0.703 1.697c-0.45 0.45-1.060 0.703-1.697 0.703h-28.8c-0.637 0-1.247-0.253-1.697-0.703s-0.703-1.061-0.703-1.697z"></path>
<path d="M1.199 16.002c0-0.637 0.253-1.247 0.703-1.697s1.061-0.703 1.697-0.703h28.8c0.637 0 1.247 0.253 1.697 0.703s0.703 1.061 0.703 1.697-0.253 1.247-0.703 1.697c-0.45 0.45-1.060 0.703-1.697 0.703h-28.8c-0.637 0-1.247-0.253-1.697-0.703s-0.703-1.061-0.703-1.697z"></path>
<path d="M1.199 28.002c0-0.637 0.253-1.247 0.703-1.697s1.061-0.703 1.697-0.703h28.8c0.637 0 1.247 0.253 1.697 0.703s0.703 1.060 0.703 1.697c0 0.636-0.253 1.247-0.703 1.697s-1.060 0.703-1.697 0.703h-28.8c-0.637 0-1.247-0.253-1.697-0.703s-0.703-1.061-0.703-1.697z"></path>
</symbol>

<symbol id="icon-modal_close" viewBox="0 0 32 32">
<path d="M32 3.223l-3.223-3.223-12.777 12.777-12.777-12.777-3.223 3.223 12.777 12.777-12.777 12.777 3.223 3.223 12.777-12.777 12.777 12.777 3.223-3.223-12.777-12.777 12.777-12.777z"></path>
</symbol>

</defs>
</svg>
